# xmcd CD database file
# Copyright (C) 1996 Ti Kan
#
# Track frame offsets:
#  150
#  18822
#  60097
#  102682
#  121887
#  137190
#  152632
#  182650
#  200815
#  234920
#
# Disc length: 3593 seconds
#
# Revision: 2
# Processed by: cddbd v1.4PL0 Copyright (c) Steve Scherf et al.
# Submitted via: Gronk 1.4
#
DISCID=7e0e070a
DTITLE=Buddy Guy - Live At The Checkerboard Lounge, Chicago - 1979
DYEAR=1900
DGENRE=blues
TTITLE0=Buddy's Blues (Part One)
TTITLE1=I've Got A Right To Love My Woman
TTITLE2=Tell Me What's Inside Of You
TTITLE3=Done Got Over You
TTITLE4=The Things I Used To Do
TTITLE5=You Don't Know How I Feel
TTITLE6=The Dollar Done Fell
TTITLE7=Buddy's Blues (Part Two)
TTITLE8=Don't Answer The Door
TTITLE9=Tell Me What's Inside Of You (Version Two)
EXTD=JSP CD 262\n\nBuddy Guy:  guitar and vocals\nPhil Guy:  guitar\nLitt
EXTD=le Phil Smith:  guitar\nJ.W. Williams:  bass\nRay Allison:  drums\nL
EXTD=C. Thurston:  vocals on "Don't Answer The Door"\n\nSubmitted 6/12/9
EXTD=7\n[Jmccoy@efn.org]
EXTT0=
EXTT1=
EXTT2=
EXTT3=
EXTT4=
EXTT5=
EXTT6=
EXTT7=
EXTT8=
EXTT9=
PLAYORDER=
